<?xml version="1.0" standalone="no"?>
<!DOCTYPE svg PUBLIC "-//W3C//DTD SVG 20010904//EN"
 "http://www.w3.org/TR/2001/REC-SVG-20010904/DTD/svg10.dtd">
<svg version="1.0" xmlns="http://www.w3.org/2000/svg"
 width="256.000000pt" height="256.000000pt" viewBox="0 0 256.000000 256.000000"
 preserveAspectRatio="xMidYMid meet">

<g transform="translate(0.000000,256.000000) scale(0.100000,-0.100000)"
fill="#000000" stroke="none">
<path d="M1251 2378 c-5 -13 -41 -103 -80 -201 -39 -97 -71 -183 -71 -190 0
-9 44 -12 180 -12 157 0 180 2 180 16 0 8 -36 103 -79 210 -64 157 -83 195
-100 197 -14 2 -24 -4 -30 -20z"/>
<path d="M483 2065 c-3 -9 32 -104 79 -213 70 -165 87 -198 106 -200 12 -2 22
1 22 5 0 20 111 141 163 178 88 62 85 66 -142 162 -107 46 -200 83 -208 83 -7
0 -16 -7 -20 -15z"/>
<path d="M1845 1997 c-158 -69 -191 -86 -193 -105 -2 -12 1 -22 5 -22 20 0
141 -111 178 -163 62 -88 66 -85 163 143 45 107 81 201 80 210 -6 29 -44 18
-233 -63z"/>
<path d="M1102 1824 c-179 -60 -307 -188 -366 -366 -37 -109 -37 -247 0 -356
60 -179 188 -306 367 -367 107 -36 247 -36 354 0 179 61 307 188 367 367 37
108 37 248 1 355 -61 179 -188 307 -367 367 -107 36 -251 36 -356 0z"/>
<path d="M360 1381 c-258 -104 -258 -97 -1 -202 107 -43 202 -79 210 -79 14 0
16 23 16 180 0 154 -2 180 -15 180 -8 -1 -103 -36 -210 -79z"/>
<path d="M1975 1280 c0 -157 2 -180 16 -180 8 0 103 36 210 79 257 105 257 98
-1 202 -107 43 -202 78 -210 79 -13 0 -15 -26 -15 -180z"/>
<path d="M621 848 c-85 -194 -143 -340 -137 -353 3 -8 12 -15 19 -15 8 0 101
37 208 83 162 69 195 86 197 105 2 12 -1 22 -5 22 -20 0 -141 111 -178 163
-53 74 -69 73 -104 -5z"/>
<path d="M1870 903 c0 -20 -111 -141 -163 -178 -88 -62 -85 -66 143 -163 107
-45 201 -81 210 -80 8 2 16 10 18 18 1 9 -35 103 -80 210 -70 163 -87 196
-106 198 -12 2 -22 -1 -22 -5z"/>
<path d="M1100 570 c1 -8 36 -103 79 -210 104 -258 97 -258 202 0 43 107 79
201 79 210 0 13 -25 15 -180 15 -154 0 -180 -2 -180 -15z"/>
</g>
</svg>
